<svg width="20" height="20" viewBox="0 0 20 20" fill="none" xmlns="http://www.w3.org/2000/svg">
<path d="M-4.00662e-06 10C0.000497548 7.8076 0.721479 5.67612 2.05198 3.9336C3.38248 2.19107 5.24876 0.934084 7.3636 0.35608C9.47843 -0.221924 11.7246 -0.0889077 13.7565 0.734659C15.7883 1.55822 17.4932 3.0267 18.6087 4.91407C19.7243 6.80145 20.1886 9.00312 19.9304 11.1803C19.6721 13.3574 18.7055 15.3893 17.1794 16.9633C15.6533 18.5374 13.6521 19.5662 11.484 19.8916C9.31588 20.2169 7.10091 19.8207 5.18 18.764L1.292 19.948C1.11858 20.0008 0.934061 20.0055 0.758182 19.9616C0.582304 19.9176 0.42168 19.8267 0.293491 19.6985C0.165303 19.5703 0.0743719 19.4097 0.0304254 19.2338C-0.0135212 19.0579 -0.00883048 18.8734 0.0439959 18.7L1.228 14.806C0.419905 13.3332 -0.00252889 11.6799 -4.00662e-06 10ZM6 9C6 9.26522 6.10535 9.51957 6.29289 9.70711C6.48043 9.89465 6.73478 10 7 10H13C13.2652 10 13.5196 9.89465 13.7071 9.70711C13.8946 9.51957 14 9.26522 14 9C14 8.73479 13.8946 8.48043 13.7071 8.2929C13.5196 8.10536 13.2652 8 13 8H7C6.73478 8 6.48043 8.10536 6.29289 8.2929C6.10535 8.48043 6 8.73479 6 9ZM7 12C6.73478 12 6.48043 12.1054 6.29289 12.2929C6.10535 12.4804 6 12.7348 6 13C6 13.2652 6.10535 13.5196 6.29289 13.7071C6.48043 13.8946 6.73478 14 7 14H11C11.2652 14 11.5196 13.8946 11.7071 13.7071C11.8946 13.5196 12 13.2652 12 13C12 12.7348 11.8946 12.4804 11.7071 12.2929C11.5196 12.1054 11.2652 12 11 12H7Z" fill="#793281"/>
</svg>
