<svg width="20" height="20" viewBox="0 0 20 20" fill="none" xmlns="http://www.w3.org/2000/svg">
<path d="M20 9.99997C19.9995 7.80757 19.2785 5.67609 17.948 3.93357C16.6175 2.19104 14.7512 0.934053 12.6364 0.356049C10.5216 -0.221955 8.27538 -0.0889382 6.24355 0.734628C4.21171 1.55819 2.50683 3.02667 1.39129 4.91404C0.275745 6.80142 -0.188631 9.00309 0.0696278 11.1802C0.327887 13.3574 1.29446 15.3893 2.82061 16.9633C4.34675 18.5373 6.34787 19.5662 8.516 19.8915C10.6841 20.2169 12.8991 19.8207 14.82 18.764L18.708 19.948C18.8814 20.0008 19.0659 20.0055 19.2418 19.9615C19.4177 19.9176 19.5783 19.8267 19.7065 19.6985C19.8347 19.5703 19.9256 19.4097 19.9696 19.2338C20.0135 19.0579 20.0088 18.8734 19.956 18.7L18.772 14.806C19.5801 13.3332 20.0025 11.6799 20 9.99997ZM14 8.99997C14 9.26519 13.8946 9.51954 13.7071 9.70708C13.5196 9.89462 13.2652 9.99997 13 9.99997H7C6.73479 9.99997 6.48043 9.89462 6.2929 9.70708C6.10536 9.51954 6 9.26519 6 8.99997C6 8.73476 6.10536 8.4804 6.2929 8.29287C6.48043 8.10533 6.73479 7.99997 7 7.99997H13C13.2652 7.99997 13.5196 8.10533 13.7071 8.29287C13.8946 8.4804 14 8.73476 14 8.99997ZM13 12C13.2652 12 13.5196 12.1053 13.7071 12.2929C13.8946 12.4804 14 12.7348 14 13C14 13.2652 13.8946 13.5195 13.7071 13.7071C13.5196 13.8946 13.2652 14 13 14H9C8.73479 14 8.48043 13.8946 8.2929 13.7071C8.10536 13.5195 8 13.2652 8 13C8 12.7348 8.10536 12.4804 8.2929 12.2929C8.48043 12.1053 8.73479 12 9 12H13Z" fill="#D45BA2"/>
</svg>
